<svg xmlns="http://www.w3.org/2000/svg" width="980" height="520" viewBox="0 0 980 520" fill="none">
  <defs>
    <style>
      .bg { fill: #f5f5f5; }
      .card { fill: #ffffff; stroke: #d4d4d4; stroke-width: 1.5; }
      .ink { stroke: #525252; fill: none; stroke-width: 2; stroke-linecap: round; stroke-linejoin: round; }
      .ink-fill { fill: #525252; }
      .label { fill: #404040; font-family: Segoe UI, Arial, sans-serif; font-size: 16px; }
      .title { fill: #262626; font-family: Segoe UI, Arial, sans-serif; font-size: 20px; font-weight: 600; }
    </style>
  </defs>

  <rect class="bg" x="0" y="0" width="980" height="520" rx="16" />
  <text class="title" x="32" y="42">Greyscale Agent Status Icons</text>

  <!-- Row 1 -->
  <g transform="translate(24 70)">
    <rect class="card" x="0" y="0" width="178" height="190" rx="12"/>
    <g transform="translate(89 76)">
      <rect class="ink" x="-24" y="-20" width="48" height="38" rx="8"/>
      <path class="ink" d="M0 -34V-20"/>
      <circle class="ink-fill" cx="-10" cy="-3" r="3"/>
      <circle class="ink-fill" cx="10" cy="-3" r="3"/>
      <path class="ink" d="M-10 10H10"/>
    </g>
    <text class="label" x="89" y="164" text-anchor="middle">Agent</text>
  </g>

  <g transform="translate(214 70)">
    <rect class="card" x="0" y="0" width="178" height="190" rx="12"/>
    <g transform="translate(89 76)">
      <rect class="ink" x="-30" y="-30" width="38" height="62" rx="6"/>
      <path class="ink" d="M-22 -12H2"/>
      <path class="ink" d="M-22 0H0"/>
      <path class="ink" d="M-22 12H-2"/>
      <path class="ink" d="M4 20L24 0L30 6L10 26L2 28L4 20Z"/>
    </g>
    <text class="label" x="89" y="164" text-anchor="middle">Plan</text>
  </g>

  <g transform="translate(404 70)">
    <rect class="card" x="0" y="0" width="178" height="190" rx="12"/>
    <g transform="translate(89 76)">
      <ellipse class="ink" cx="0" cy="4" rx="16" ry="19"/>
      <path class="ink" d="M0 -24V-13"/>
      <path class="ink" d="M-16 -5L-27 -11"/>
      <path class="ink" d="M16 -5L27 -11"/>
      <path class="ink" d="M-16 15L-27 21"/>
      <path class="ink" d="M16 15L27 21"/>
    </g>
    <text class="label" x="89" y="164" text-anchor="middle">Debug</text>
  </g>

  <g transform="translate(594 70)">
    <rect class="card" x="0" y="0" width="178" height="190" rx="12"/>
    <g transform="translate(89 76)">
      <circle class="ink" cx="0" cy="0" r="24"/>
      <path class="ink" d="M-4 -8C-4 -13 0 -17 6 -17C12 -17 16 -13 16 -8C16 -4 14 -2 10 1C6 4 4 7 4 11V12"/>
      <circle class="ink-fill" cx="4" cy="18" r="2.8"/>
    </g>
    <text class="label" x="89" y="164" text-anchor="middle">Ask</text>
  </g>

  <g transform="translate(784 70)">
    <rect class="card" x="0" y="0" width="178" height="190" rx="12"/>
    <g transform="translate(89 76)">
      <path class="ink" d="M-20 -6H8"/>
      <path class="ink" d="M4 -12L14 -6L4 0"/>
      <circle class="ink" cx="0" cy="0" r="24"/>
    </g>
    <text class="label" x="89" y="164" text-anchor="middle">Proceed Always</text>
  </g>

  <!-- Row 2 -->
  <g transform="translate(24 286)">
    <rect class="card" x="0" y="0" width="178" height="190" rx="12"/>
    <g transform="translate(89 76)">
      <rect class="ink" x="-16" y="-4" width="32" height="26" rx="5"/>
      <path class="ink" d="M-10 -4V-12C-10 -17 -6 -21 0 -21C6 -21 10 -17 10 -12V-4"/>
      <path class="ink" d="M0 6V12"/>
    </g>
    <text class="label" x="89" y="164" text-anchor="middle">Read-only</text>
  </g>

  <g transform="translate(214 286)">
    <rect class="card" x="0" y="0" width="178" height="190" rx="12"/>
    <g transform="translate(89 76)">
      <path class="ink" d="M-30 -10H-8L0 -2H30V20H-30V-10Z"/>
      <path class="ink" d="M-30 -2H30"/>
    </g>
    <text class="label" x="89" y="164" text-anchor="middle">Workspace</text>
  </g>

  <g transform="translate(404 286)">
    <rect class="card" x="0" y="0" width="178" height="190" rx="12"/>
    <g transform="translate(89 76)">
      <path class="ink" d="M0 -24L28 24H-28L0 -24Z"/>
      <path class="ink" d="M0 -6V10"/>
      <circle class="ink-fill" cx="0" cy="17" r="2.4"/>
    </g>
    <text class="label" x="89" y="164" text-anchor="middle">Danger</text>
  </g>

  <g transform="translate(594 286)">
    <rect class="card" x="0" y="0" width="178" height="190" rx="12"/>
    <g transform="translate(89 76)">
      <circle class="ink" cx="-6" cy="-4" r="16"/>
      <path class="ink" d="M-12 -4L-6 2L3 -8"/>
      <path class="ink" d="M6 8L24 26"/>
    </g>
    <text class="label" x="89" y="164" text-anchor="middle">Verify First</text>
  </g>

</svg>
